<svg width="512" height="512" version="1.1" xmlns="http://www.w3.org/2000/svg"><path stroke-width="15" stroke="rgba(0,0,0,1)" fill="none" stroke-linejoin="round" stroke-linecap="round" d="M 122 72 C 122 72.4 122 71.6 122 74 C 122 76.4 122 81 122 84 C 122 87 121.6 85 122 89 C 122.4 93 123.6 98 124 104 C 124.4 110 124 115 124 119 C 124 123 124 120 124 124 C 124 128 124 135 124 139 C 124 143 124 141 124 144 C 124 147 124 149.4 124 154 C 124 158.6 124 162 124 167 C 124 172 124 175 124 179 C 124 183 124 182 124 187 C 124 192 124 198 124 204 C 124 210 124 213.4 124 217 C 124 220.6 123.4 217.6 124 222 C 124.6 226.4 126.4 233 127 239 C 127.6 245 126.6 246.4 127 252 C 127.4 257.6 128.6 263 129 267 C 129.4 271 129 268 129 272 C 129 276 129 282.6 129 287 C 129 291.4 129 292 129 294 C 129 296 129 294 129 297 C 129 300 129 305 129 309 C 129 313 129 314.4 129 317 C 129 319.6 129 317.6 129 322 C 129 326.4 129 333 129 339 C 129 345 129 348.4 129 352 C 129 355.6 129 354 129 357 C 129 360 129 364 129 367 C 129 370 129 370 129 372 C 129 374 129 375.6 129 377 C 129 378.4 129 377 129 379 C 129 381 129 384 129 387 C 129 390 129 392 129 394 C 129 396 129 394.4 129 397 C 129 399.6 129 404 129 407 C 129 410 129 410 129 412 C 129 414 129 415.6 129 417 C 129 418.4 129.4 416.6 129 419 C 128.6 421.4 127.4 426 127 429 C 126.6 432 127 432.4 127 434 C 127 435.6 127 435.4 127 437 C 127 438.6 127 441 127 442"></path><path stroke-width="15" stroke="rgba(0,0,0,1)" fill="none" stroke-linejoin="round" stroke-linecap="round" d="M 129 442 C 129.6 442 130 442 132 442 C 134 442 137 442 139 442 C 141 442 138.4 442.4 142 442 C 145.6 441.6 152 440.4 157 440 C 162 439.6 164 440 167 440 C 170 440 169 440 172 440 C 175 440 178.6 440.6 182 440 C 185.4 439.4 186.6 437.6 189 437 C 191.4 436.4 190.4 437 194 437 C 197.6 437 202 437 207 437 C 212 437 215 437 219 437 C 223 437 220.4 436.6 227 437 C 233.6 437.4 244 438 252 439 C 260 440 262.6 441.4 267 442 C 271.4 442.6 268.6 442 274 442 C 279.4 442 287 442 294 442 C 301 442 303.4 442 309 442 C 314.6 442 319 442.4 322 442 C 325 441.6 322.6 440.4 324 440 C 325.4 439.6 327.4 440 329 440 C 330.6 440 330 440 332 440 C 334 440 336 440.6 339 440 C 342 439.4 344 437.6 347 437 C 350 436.4 351.6 437 354 437 C 356.4 437 357.4 437 359 437 C 360.6 437 361 437 362 437 C 363 437 362 437 364 437 C 366 437 370.4 437.4 372 437 C 373.6 436.6 372 435.4 372 435"></path><path stroke-width="15" stroke="rgba(0,0,0,1)" fill="none" stroke-linejoin="round" stroke-linecap="round" d="M 359 74 C 359 75 359 77.4 359 79 C 359 80.6 358.4 78 359 82 C 359.6 86 361.4 93 362 99 C 362.6 105 362 108 362 112 C 362 116 362 115.6 362 119 C 362 122.4 362 126 362 129 C 362 132 362 132 362 134 C 362 136 362 137.4 362 139 C 362 140.6 362 138.4 362 142 C 362 145.6 362 152.6 362 157 C 362 161.4 362 161.6 362 164 C 362 166.4 362 166.4 362 169 C 362 171.6 362 174 362 177 C 362 180 361.6 182 362 184 C 362.4 186 363.6 183.4 364 187 C 364.4 190.6 364 197 364 202 C 364 207 364 208.6 364 212 C 364 215.4 364 216 364 219 C 364 222 364 223.4 364 227 C 364 230.6 364 232.6 364 237 C 364 241.4 364 245.6 364 249 C 364 252.4 364 250.4 364 254 C 364 257.6 364 262.4 364 267 C 364 271.6 364 274 364 277 C 364 280 363.4 278 364 282 C 364.6 286 366.4 292.6 367 297 C 367.6 301.4 367 301.6 367 304 C 367 306.4 367 306.4 367 309 C 367 311.6 367 313 367 317 C 367 321 367 325.6 367 329 C 367 332.4 367 332 367 334 C 367 336 367 334.4 367 339 C 367 343.6 367 351.4 367 357 C 367 362.6 367 364 367 367 C 367 370 367 369 367 372 C 367 375 367 378.6 367 382 C 367 385.4 367 386 367 389 C 367 392 367 395 367 397 C 367 399 367 397.6 367 399 C 367 400.4 367 402.4 367 404 C 367 405.6 367 406 367 407 C 367 408 367 408 367 409 C 367 410 367 411 367 412 C 367 413 367 412.6 367 414 C 367 415.4 367 417.4 367 419 C 367 420.6 367 419.4 367 422 C 367 424.6 367 429.6 367 432 C 367 434.4 367 433.6 367 434"></path><path stroke-width="15" stroke="rgba(0,0,0,1)" fill="none" stroke-linejoin="round" stroke-linecap="round" d="M 127 72 C 127.4 72 128 72 129 72 C 130 72 131 72 132 72 C 133 72 133 72 134 72 C 135 72 136 72 137 72 C 138 72 137.6 72.4 139 72 C 140.4 71.6 141.4 70.4 144 70 C 146.6 69.6 149.4 70 152 70 C 154.6 70 154.6 70 157 70 C 159.4 70 162 70 164 70 C 166 70 166 70 167 70 C 168 70 168 70 169 70 C 170 70 171 70 172 70 C 173 70 171 70 174 70 C 177 70 182 70 187 70 C 192 70 195.6 70 199 70 C 202.4 70 199 69.2 204 70 C 209 70.8 218.4 73.2 224 74 C 229.6 74.8 229 74 232 74 C 235 74 237 74 239 74 C 241 74 240 73.4 242 74 C 244 74.6 246.6 76.4 249 77 C 251.4 77.6 252 77 254 77 C 256 77 256.4 76.6 259 77 C 261.6 77.4 264.4 78.6 267 79 C 269.6 79.4 270.6 79 272 79 C 273.4 79 272 79 274 79 C 276 79 277.4 79 282 79 C 286.6 79 293 79 297 79 C 301 79 299.6 79 302 79 C 304.4 79 307 79 309 79 C 311 79 311 79 312 79 C 313 79 312.6 78.4 314 79 C 315.4 79.6 317.4 81.4 319 82 C 320.6 82.6 321 82.4 322 82 C 323 81.6 323 80.4 324 80 C 325 79.6 326 80 327 80 C 328 80 328 80 329 80 C 330 80 330.4 80.6 332 80 C 333.6 79.4 335 77.6 337 77 C 339 76.4 340 77.4 342 77 C 344 76.6 344 75.4 347 75 C 350 74.6 354.6 75 357 75 C 359.4 75 358 75 359 75 C 360 75 361 75 362 75 C 363 75 363 75 364 75 C 365 75 366.4 75 367 75"></path></svg>