<svg width="512" height="512" version="1.1" xmlns="http://www.w3.org/2000/svg"><path stroke-width="15" stroke="rgba(0,0,0,1)" fill="none" stroke-linejoin="round" stroke-linecap="round" d="M 47 137 C 47 137.4 47 137 47 139 C 47 141 47 144.4 47 147 C 47 149.6 47 150.6 47 152 C 47 153.4 47 152 47 154 C 47 156 47 159 47 162 C 47 165 47 166.6 47 169 C 47 171.4 47 169 47 174 C 47 179 47 187 47 194 C 47 201 47 204.4 47 209 C 47 213.6 47 211.4 47 217 C 47 222.6 47 230 47 237 C 47 244 47 247.6 47 252 C 47 256.4 47 253 47 259 C 47 265 47 276.4 47 282 C 47 287.6 47 284 47 287 C 47 290 47 294.6 47 297 C 47 299.4 47 296.6 47 299 C 47 301.4 47 306.4 47 309 C 47 311.6 47 310.4 47 312 C 47 313.6 47 315.6 47 317 C 47 318.4 47 318 47 319 C 47 320 47 321 47 322 C 47 323 47 323 47 324 C 47 325 47 326 47 327 C 47 328 47 328 47 329 C 47 330 47 331 47 332 C 47 333 47 333 47 334 C 47 335 47 336 47 337 C 47 338 47 337.6 47 339 C 47 340.4 47 341.4 47 344 C 47 346.6 47 350 47 352 C 47 354 47 353 47 354 C 47 355 47 356 47 357 C 47 358 47 358 47 359 C 47 360 46.6 361.4 47 362 C 47.4 362.6 48 362 49 362 C 50 362 50.4 362 52 362 C 53.6 362 55.6 362 57 362 C 58.4 362 58 362 59 362 C 60 362 60.4 362 62 362 C 63.6 362 65.6 362 67 362 C 68.4 362 67.6 362 69 362 C 70.4 362 71.4 362 74 362 C 76.6 362 79.4 362 82 362 C 84.6 362 85.6 362 87 362 C 88.4 362 85.6 362 89 362 C 92.4 362 99.4 362 104 362 C 108.6 362 108 362 112 362 C 116 362 117.6 362 124 362 C 130.4 362 138 362 144 362 C 150 362 149.4 362 154 362 C 158.6 362 162.4 362 167 362 C 171.6 362 173 362 177 362 C 181 362 184.6 362 187 362 C 189.4 362 186.6 362 189 362 C 191.4 362 194.4 362 199 362 C 203.6 362 208.4 362 212 362 C 215.6 362 213 362 217 362 C 221 362 227 361.6 232 362 C 237 362.4 239 363.6 242 364 C 245 364.4 243 364 247 364 C 251 364 255.6 363.4 262 364 C 268.4 364.6 273.6 366.4 279 367 C 284.4 367.6 284.4 367 289 367 C 293.6 367 296.4 367 302 367 C 307.6 367 311.6 366.6 317 367 C 322.4 367.4 325 368.6 329 369 C 333 369.4 332.4 368.4 337 369 C 341.6 369.6 347 371.4 352 372 C 357 372.6 359.6 372 362 372 C 364.4 372 361.6 372 364 372 C 366.4 372 370.4 372 374 372 C 377.6 372 379 372 382 372 C 385 372 385.6 372 389 372 C 392.4 372 396 372 399 372 C 402 372 402 372 404 372 C 406 372 407.4 372 409 372 C 410.6 372 410.4 372 412 372 C 413.6 372 415.6 372.4 417 372 C 418.4 371.6 418 370.4 419 370 C 420 369.6 421 370 422 370 C 423 370 422.6 370.6 424 370 C 425.4 369.4 426 367.6 429 367 C 432 366.4 435.4 367.4 439 367 C 442.6 366.6 444.4 365.4 447 365 C 449.6 364.6 450.6 365 452 365 C 453.4 365 453.6 365.6 454 365 C 454.4 364.4 453.4 362.6 454 362 C 454.6 361.4 456.4 362.4 457 362 C 457.6 361.6 456 362.4 457 360 C 458 357.6 460 355 462 350 C 464 345 466 339.6 467 335 C 468 330.4 466.6 332.6 467 327 C 467.4 321.4 468 313.4 469 307 C 470 300.6 471 298.4 472 295 C 473 291.6 473.6 293.6 474 290 C 474.4 286.4 474 281 474 277 C 474 273 473.4 272.4 474 270 C 474.6 267.6 476.4 268 477 265 C 477.6 262 477 261 477 255 C 477 249 477 240.6 477 235 C 477 229.4 477 229.6 477 227 C 477 224.4 477 226 477 222 C 477 218 477.4 213 477 207 C 476.6 201 475.4 196 475 192 C 474.6 188 475.6 190.4 475 187 C 474.4 183.6 472.6 178.4 472 175 C 471.4 171.6 472 172 472 170 C 472 168 472.4 168.6 472 165 C 471.6 161.4 471 155 470 152 C 469 149 467.6 151 467 150 C 466.4 149 467.4 149 467 147 C 466.6 145 465.4 142 465 140 C 464.6 138 465 138 465 137 C 465 136 465 136 465 135 C 465 134 465.6 133 465 132 C 464.4 131 462.6 131 462 130 C 461.4 129 462.4 127.6 462 127 C 461.6 126.4 461.4 127 460 127 C 458.6 127 457 126.6 455 127 C 453 127.4 452.6 128.6 450 129 C 447.4 129.4 444.6 129 442 129 C 439.4 129 441 128.4 437 129 C 433 129.6 426.4 131.4 422 132 C 417.6 132.6 417.4 132 415 132 C 412.6 132 414.6 132 410 132 C 405.4 132 397.6 132 392 132 C 386.4 132 387.4 132 382 132 C 376.6 132 370.4 132 365 132 C 359.6 132 361.6 132 355 132 C 348.4 132 338.6 132 332 132 C 325.4 132 325 132 322 132 C 319 132 322 132 317 132 C 312 132 304.4 132.4 297 132 C 289.6 131.6 285.4 130.4 280 130 C 274.6 129.6 276 130.6 270 130 C 264 129.4 257 127.6 250 127 C 243 126.4 239.6 127 235 127 C 230.4 127 230 127 227 127 C 224 127 224 127 220 127 C 216 127 211 127 207 127 C 203 127 204.4 127.4 200 127 C 195.6 126.6 189.6 125.4 185 125 C 180.4 124.6 179 125 177 125 C 175 125 177 125 175 125 C 173 125 170.6 125 167 125 C 163.4 125 159.4 125 157 125 C 154.6 125 157 125 155 125 C 153 125 150 125 147 125 C 144 125 143.4 125 140 125 C 136.6 125 133 125 130 125 C 127 125 130 125 125 125 C 120 125 111 125 105 125 C 99 125 98 125 95 125 C 92 125 92 125 90 125 C 88 125 86.6 125 85 125 C 83.4 125 83 125 82 125 C 81 125 81.4 125 80 125 C 78.6 125 77 125 75 125 C 73 125 71.6 125 70 125 C 68.4 125 69 124.6 67 125 C 65 125.4 62 126.6 60 127 C 58 127.4 58 127 57 127 C 56 127 56 127 55 127 C 54 127 53 127 52 127 C 51 127 50.4 127 50 127"></path></svg>