<svg width="512" height="512" version="1.1" xmlns="http://www.w3.org/2000/svg"><path stroke-width="15" stroke="rgba(0,0,0,1)" fill="none" stroke-linejoin="round" stroke-linecap="round" d="M 440 162 C 440 164 440 166 440 172 C 440 178 440 185.6 440 192 C 440 198.4 439.6 194 440 204 C 440.4 214 441 228 442 242 C 443 256 444.4 264.6 445 274 C 445.6 283.4 445 284.4 445 289 C 445 293.6 445 295 445 297 C 445 299 445 298.6 445 299"></path><path stroke-width="15" stroke="rgba(0,0,0,1)" fill="none" stroke-linejoin="round" stroke-linecap="round" d="M 440 302 C 439.6 302 439 302 438 302 C 437 302 436 302 435 302 C 434 302 434 302 433 302 C 432 302 431 302 430 302 C 429 302 429 302 428 302 C 427 302 426 302 425 302 C 424 302 424.4 301.6 423 302 C 421.6 302.4 419.6 303.6 418 304 C 416.4 304.4 417 304 415 304 C 413 304 411 304 408 304 C 405 304 402.6 304 400 304 C 397.4 304 405 303 395 304 C 385 305 363.4 308 350 309 C 336.6 310 341.4 309 328 309 C 314.6 309 296 309 283 309 C 270 309 275.6 309.8 263 309 C 250.4 308.2 230.6 305.8 220 305 C 209.4 304.2 212.4 305 210 305 C 207.6 305 209 305 208 305 C 207 305 206 305 205 305 C 204 305 204 305 203 305 C 202 305 202 305 200 305 C 198 305 195.4 305 193 305 C 190.6 305 189.6 305 188 305 C 186.4 305 186 305 185 305 C 184 305 184 305 183 305 C 182 305 181 305 180 305 C 179 305 179 305 178 305 C 177 305 177 304.6 175 305 C 173 305.4 170 306.6 168 307 C 166 307.4 166.6 307 165 307 C 163.4 307 162 307 160 307 C 158 307 157 306.6 155 307 C 153 307.4 152.4 308.6 150 309 C 147.6 309.4 148.4 309 143 309 C 137.6 309 129.6 309 123 309 C 116.4 309 118.6 309 110 309 C 101.4 309 87 309 80 309 C 73 309 76 309 75 309"></path><path stroke-width="15" stroke="rgba(0,0,0,1)" fill="none" stroke-linejoin="round" stroke-linecap="round" d="M 185 220 C 184.6 220.4 184 221.2 183 222 C 182 222.8 182 222.6 180 224 C 178 225.4 175.4 227.4 173 229 C 170.6 230.6 171.6 230 168 232 C 164.4 234 158 237 155 239 C 152 241 156.4 239.4 153 242 C 149.6 244.6 142.6 248.6 138 252 C 133.4 255.4 132.6 257 130 259 C 127.4 261 128 260.4 125 262 C 122 263.6 118 265 115 267 C 112 269 112 270.6 110 272 C 108 273.4 108 272 105 274 C 102 276 98 280 95 282 C 92 284 92 282.6 90 284 C 88 285.4 87 287.4 85 289 C 83 290.6 81 291 80 292 C 79 293 80.4 293.6 80 294 C 79.6 294.4 79 293.4 78 294 C 77 294.6 76.6 295.4 75 297 C 73.4 298.6 71.4 301 70 302 C 68.6 303 68.4 302 68 302"></path><path stroke-width="15" stroke="rgba(0,0,0,1)" fill="none" stroke-linejoin="round" stroke-linecap="round" d="M 70 309 C 71.4 310 74.6 312 77 314 C 79.4 316 78.4 315.4 82 319 C 85.6 322.6 90 327.4 95 332 C 100 336.6 104 339 107 342 C 110 345 108 345.6 110 347 C 112 348.4 113.6 347.6 117 349 C 120.4 350.4 124 352.4 127 354 C 130 355.6 130.4 356 132 357 C 133.6 358 133 357.6 135 359 C 137 360.4 138 362 142 364 C 146 366 151.4 367.4 155 369 C 158.6 370.6 158.6 371 160 372 C 161.4 373 159.6 372.6 162 374 C 164.4 375.4 169 378 172 379 C 175 380 176 379 177 379"></path></svg>