<svg width="512" height="512" version="1.1" xmlns="http://www.w3.org/2000/svg"><path stroke-width="15" stroke="rgba(0,0,0,1)" fill="none" stroke-linejoin="round" stroke-linecap="round" d="M 247 132 C 247 132.4 247 133 247 134 C 247 135 247 135 247 137 C 247 139 247 141.6 247 144 C 247 146.4 247 145.4 247 149 C 247 152.6 247 156 247 162 C 247 168 247 172.6 247 179 C 247 185.4 247 189.4 247 194 C 247 198.6 247 193.4 247 202 C 247 210.6 247.4 225.6 247 237 C 246.6 248.4 245.4 251.6 245 259 C 244.6 266.4 245 263.4 245 274 C 245 284.6 245 300 245 312 C 245 324 245.4 327.6 245 334 C 244.6 340.4 243.4 339.4 243 344 C 242.6 348.6 243 353.4 243 357 C 243 360.6 243 361 243 362"></path><path stroke-width="15" stroke="rgba(0,0,0,1)" fill="none" stroke-linejoin="round" stroke-linecap="round" d="M 250 362 C 251 361 253 359.4 255 357 C 257 354.6 253.6 358.4 260 350 C 266.4 341.6 279.6 324.6 287 315 C 294.4 305.4 291 309.6 297 302 C 303 294.4 310 286 317 277 C 324 268 329 261.4 332 257 C 335 252.6 332 255.4 332 255"></path><path stroke-width="15" stroke="rgba(0,0,0,1)" fill="none" stroke-linejoin="round" stroke-linecap="round" d="M 153 282 C 153.4 282 153.6 281.6 155 282 C 156.4 282.4 157.6 282 160 284 C 162.4 286 164 289 167 292 C 170 295 172.4 296.6 175 299 C 177.6 301.4 173.6 298 180 304 C 186.4 310 200 322.4 207 329 C 214 335.6 213 335 215 337 C 217 339 215.6 337.6 217 339 C 218.4 340.4 220.4 342.4 222 344 C 223.6 345.6 224 346 225 347 C 226 348 226 348 227 349 C 228 350 228 350 230 352 C 232 354 235 356.6 237 359 C 239 361.4 238.4 362 240 364 C 241.6 366 244 368 245 369"></path><path stroke-width="15" stroke="rgba(0,0,0,1)" fill="none" stroke-linejoin="round" stroke-linecap="round" d="M 63 364 C 63 365.6 63 368.4 63 372 C 63 375.6 63 379 63 382 C 63 385 63 381.6 63 387 C 63 392.4 63.6 402 63 409 C 62.4 416 60.6 419 60 422 C 59.4 425 60 423.6 60 424"></path><path stroke-width="15" stroke="rgba(0,0,0,1)" fill="none" stroke-linejoin="round" stroke-linecap="round" d="M 65 427 C 65.4 427 66 427 67 427 C 68 427 69 427 70 427 C 71 427 69 427 72 427 C 75 427 77.4 427 85 427 C 92.6 427 103 427 110 427 C 117 427 111.6 427 120 427 C 128.4 427 139.6 427.4 152 427 C 164.4 426.6 171.4 426 182 425 C 192.6 424 184.4 422.6 205 422 C 225.6 421.4 257 421.6 285 422 C 313 422.4 327.6 423 345 424 C 362.4 425 359 426 372 427 C 385 428 399.4 428 410 429 C 420.6 430 421.6 431.4 425 432 C 428.4 432.6 426.6 432 427 432"></path><path stroke-width="15" stroke="rgba(0,0,0,1)" fill="none" stroke-linejoin="round" stroke-linecap="round" d="M 427 430 C 427 429.4 427.8 431 427 427 C 426.2 423 424.4 414.4 423 410 C 421.6 405.6 420.6 408 420 405 C 419.4 402 420 398 420 395 C 420 392 420 392 420 390 C 420 388 420 386.6 420 385 C 420 383.4 420 383 420 382 C 420 381 420.4 381 420 380 C 419.6 379 418.4 378.6 418 377 C 417.6 375.4 418 373 418 372"></path></svg>