<svg width="512" height="512" version="1.1" xmlns="http://www.w3.org/2000/svg"><path stroke-width="15" stroke="rgba(0,0,0,1)" fill="none" stroke-linejoin="round" stroke-linecap="round" d="M 349 431 C 350 429.6 352.4 426 354 424 C 355.6 422 355.4 422.6 357 421 C 358.6 419.4 361 417.4 362 416 C 363 414.6 361 415.4 362 414 C 363 412.6 365 410.6 367 409 C 369 407.4 370.6 407.6 372 406 C 373.4 404.4 371.6 403.4 374 401 C 376.4 398.6 381 396.4 384 394 C 387 391.6 387.4 391 389 389 C 390.6 387 389 387 392 384 C 395 381 401 376.6 404 374 C 407 371.4 406 372 407 371 C 408 370 407.6 371.4 409 369 C 410.4 366.6 411.4 362.6 414 359 C 416.6 355.4 419 354.6 422 351 C 425 347.4 427 343.4 429 341 C 431 338.6 430.4 341 432 339 C 433.6 337 435.6 333.6 437 331 C 438.4 328.4 438 327 439 326 C 440 325 441.4 326.4 442 326 C 442.6 325.6 441.6 325 442 324 C 442.4 323 443 322.6 444 321 C 445 319.4 446.4 317.4 447 316 C 447.6 314.6 447 315 447 314 C 447 313 446 312 447 311 C 448 310 451 310 452 309 C 453 308 451.6 307 452 306 C 452.4 305 453 305 454 304 C 455 303 456.4 302 457 301 C 457.6 300 456.6 300 457 299 C 457.4 298 458 297 459 296 C 460 295 461 295 462 294 C 463 293 463.6 291.6 464 291"></path><path stroke-width="15" stroke="rgba(0,0,0,1)" fill="none" stroke-linejoin="round" stroke-linecap="round" d="M 467 283 C 466.6 282.6 466 281.4 465 281 C 464 280.6 462.6 281.4 462 281 C 461.4 280.6 463 279.4 462 279 C 461 278.6 458.4 279.6 457 279 C 455.6 278.4 455.4 277 455 276 C 454.6 275 456 275.4 455 274 C 454 272.6 452 271 450 269 C 448 267 447 266 445 264 C 443 262 443.6 262.6 440 259 C 436.4 255.4 430 249.6 427 246 C 424 242.4 426.4 243 425 241 C 423.6 239 421.6 237.4 420 236 C 418.4 234.6 418.6 235 417 234 C 415.4 233 413.4 232 412 231 C 410.6 230 411 229.4 410 229 C 409 228.6 408 229.6 407 229 C 406 228.4 406 226.6 405 226 C 404 225.4 403 226.4 402 226 C 401 225.6 401 225 400 224 C 399 223 398.6 222 397 221 C 395.4 220 394 220 392 219 C 390 218 389 217 387 216 C 385 215 384 215.4 382 214 C 380 212.6 379 210 377 209 C 375 208 375 210.6 372 209 C 369 207.4 365 203.6 362 201 C 359 198.4 358.4 197.4 357 196 C 355.6 194.6 357 195.4 355 194 C 353 192.6 349 190.6 347 189 C 345 187.4 346 187 345 186 C 344 185 343.6 185.4 342 184 C 340.4 182.6 338.4 180.6 337 179 C 335.6 177.4 336 176.6 335 176 C 334 175.4 332.6 176.4 332 176 C 331.4 175.6 332.4 174.4 332 174 C 331.6 173.6 331 174.6 330 174 C 329 173.4 328 171.6 327 171 C 326 170.4 327 172 325 171 C 323 170 319 167.4 317 166 C 315 164.6 316 165 315 164 C 314 163 313.6 161.6 312 161 C 310.4 160.4 308.4 161.4 307 161 C 305.6 160.6 306 159.4 305 159 C 304 158.6 304 160 302 159 C 300 158 297.4 155.6 295 154 C 292.6 152.4 291.6 152 290 151 C 288.4 150 288.6 150 287 149 C 285.4 148 283 147.6 282 146 C 281 144.4 282.4 142 282 141 C 281.6 140 282.4 142.4 280 141 C 277.6 139.6 272.6 136 270 134 C 267.4 132 268 132 267 131 C 266 130 267 130.4 265 129 C 263 127.6 259.6 125.6 257 124 C 254.4 122.4 253.4 122 252 121 C 250.6 120 251.4 120.4 250 119 C 248.6 117.6 247 116 245 114 C 243 112 241.6 110.6 240 109 C 238.4 107.4 238 106.6 237 106 C 236 105.4 235.4 106.4 235 106 C 234.6 105.6 236 104.4 235 104 C 234 103.6 233.6 105 230 104 C 226.4 103 221 101 217 99 C 213 97 212 95 210 94 C 208 93 208 94.6 207 94 C 206 93.4 206 91.6 205 91 C 204 90.4 203 91.4 202 91 C 201 90.6 201 89.4 200 89 C 199 88.6 197.6 89.6 197 89 C 196.4 88.4 197.4 86.6 197 86 C 196.6 85.4 195.4 86.4 195 86 C 194.6 85.6 195.6 84.4 195 84 C 194.4 83.6 193 84 192 84 C 191 84 190.4 84.6 190 84 C 189.6 83.4 190.6 81.6 190 81 C 189.4 80.4 188.6 81.4 187 81 C 185.4 80.6 183 80 182 79 C 181 78 182 76.6 182 76"></path><path stroke-width="15" stroke="rgba(0,0,0,1)" fill="none" stroke-linejoin="round" stroke-linecap="round" d="M 180 76 C 179.4 76.4 178 77 177 78 C 176 79 176 80 175 81 C 174 82 172.6 82 172 83 C 171.4 84 173 84.4 172 86 C 171 87.6 169 89.6 167 91 C 165 92.4 163 91.6 162 93 C 161 94.4 164 95 162 98 C 160 101 154.4 105.4 152 108 C 149.6 110.6 151 110 150 111 C 149 112 148.6 111.6 147 113 C 145.4 114.4 143.4 116 142 118 C 140.6 120 141 122 140 123 C 139 124 137.6 122.4 137 123 C 136.4 123.6 137.4 125 137 126 C 136.6 127 136.4 126.6 135 128 C 133.6 129.4 131.6 131.4 130 133 C 128.4 134.6 127.6 135 127 136 C 126.4 137 127.4 137 127 138 C 126.6 139 125.4 140 125 141 C 124.6 142 126 142 125 143 C 124 144 121 145 120 146 C 119 147 120.6 147 120 148 C 119.4 149 118 150 117 151 C 116 152 115.4 152 115 153 C 114.6 154 115.6 155.4 115 156 C 114.4 156.6 112.6 155.6 112 156 C 111.4 156.4 112.4 157 112 158 C 111.6 159 111 160 110 161 C 109 162 108 162 107 163 C 106 164 105.4 165 105 166 C 104.6 167 105.6 167.6 105 168 C 104.4 168.4 102.6 167.4 102 168 C 101.4 168.6 102 170 102 171 C 102 172 103 172 102 173 C 101 174 98 175 97 176 C 96 177 97 177 97 178 C 97 179 97.4 180.4 97 181 C 96.6 181.6 96 180.6 95 181 C 94 181.4 93 181.6 92 183 C 91 184.4 91 186.4 90 188 C 89 189.6 87.6 190 87 191 C 86.4 192 87.4 192 87 193 C 86.6 194 86.4 195 85 196 C 83.6 197 81.6 196.6 80 198 C 78.4 199.4 79 201 77 203 C 75 205 73 205.4 70 208 C 67 210.6 64 214.4 62 216 C 60 217.6 60.4 215.6 60 216 C 59.6 216.4 61 217 60 218 C 59 219 56 220 55 221 C 54 222 55.6 222.6 55 223 C 54.4 223.4 52.6 222.4 52 223 C 51.4 223.6 52 225 52 226 C 52 227 52.4 227.6 52 228 C 51.6 228.4 50.4 227.4 50 228 C 49.6 228.6 50 230 50 231 C 50 232 50.6 232.6 50 233 C 49.4 233.4 47.6 232.4 47 233 C 46.4 233.6 47 235 47 236 C 47 237 47.4 237.6 47 238 C 46.6 238.4 45.4 237.4 45 238 C 44.6 238.6 45 240 45 241 C 45 242 45.6 242 45 243 C 44.4 244 43 245.4 42 246 C 41 246.6 40.4 245.6 40 246 C 39.6 246.4 40 247 40 248 C 40 249 40 250 40 251 C 40 252 39.6 252.6 40 253 C 40.4 253.4 40.6 253 42 253 C 43.4 253 45.6 252.4 47 253 C 48.4 253.6 48 255.4 49 256 C 50 256.6 51 256 52 256 C 53 256 53.6 255.6 54 256 C 54.4 256.4 53.4 257.6 54 258 C 54.6 258.4 56 258 57 258 C 58 258 57.6 257 59 258 C 60.4 259 62.4 262 64 263 C 65.6 264 66 262.4 67 263 C 68 263.6 68 265 69 266 C 70 267 71 267 72 268 C 73 269 72.6 269.4 74 271 C 75.4 272.6 78 274.6 79 276 C 80 277.4 78.4 277.6 79 278 C 79.6 278.4 81 277.4 82 278 C 83 278.6 83 280 84 281 C 85 282 85.4 282 87 283 C 88.6 284 90.6 284.4 92 286 C 93.4 287.6 93 290 94 291 C 95 292 96.4 290.6 97 291 C 97.6 291.4 96.6 292.6 97 293 C 97.4 293.4 98 292.4 99 293 C 100 293.6 101 295.4 102 296 C 103 296.6 103 296 104 296 C 105 296 106 295.6 107 296 C 108 296.4 107.6 296.6 109 298 C 110.4 299.4 112 301.4 114 303 C 116 304.6 117 304.4 119 306 C 121 307.6 121.4 309 124 311 C 126.6 313 129 314 132 316 C 135 318 137 320 139 321 C 141 322 141.4 320.6 142 321 C 142.6 321.4 141.6 322 142 323 C 142.4 324 142.6 325.4 144 326 C 145.4 326.6 147 325 149 326 C 151 327 152 329.6 154 331 C 156 332.4 158 332 159 333 C 160 334 158.4 335.4 159 336 C 159.6 336.6 161 335.6 162 336 C 163 336.4 163 337.6 164 338 C 165 338.4 166.4 337.4 167 338 C 167.6 338.6 166.6 340 167 341 C 167.4 342 168 342.6 169 343 C 170 343.4 170.4 342.4 172 343 C 173.6 343.6 175.6 345 177 346 C 178.4 347 178.6 347 179 348 C 179.4 349 178.4 350 179 351 C 179.6 352 180.4 352 182 353 C 183.6 354 185.6 355 187 356 C 188.4 357 188 356.6 189 358 C 190 359.4 191 362 192 363 C 193 364 193.6 362.4 194 363 C 194.4 363.6 193.4 365.4 194 366 C 194.6 366.6 196 365.6 197 366 C 198 366.4 198 367 199 368 C 200 369 201 369.4 202 371 C 203 372.6 203 374.6 204 376 C 205 377.4 206 377.6 207 378 C 208 378.4 208.6 377.4 209 378 C 209.4 378.6 208.4 380.4 209 381 C 209.6 381.6 211 380.6 212 381 C 213 381.4 213 382 214 383 C 215 384 216 385.4 217 386 C 218 386.6 217 384.6 219 386 C 221 387.4 225 391 227 393 C 229 395 228 395.4 229 396 C 230 396.6 231 396 232 396 C 233 396 233.6 395.6 234 396 C 234.4 396.4 233.4 397.6 234 398 C 234.6 398.4 236 398 237 398 C 238 398 238 397.4 239 398 C 240 398.6 241 400 242 401 C 243 402 243 402 244 403 C 245 404 246 405.4 247 406 C 248 406.6 248 406 249 406 C 250 406 251.4 405.6 252 406 C 252.6 406.4 251.6 407.6 252 408 C 252.4 408.4 253 407.4 254 408 C 255 408.6 256 410.4 257 411 C 258 411.6 258 410.6 259 411 C 260 411.4 261 412.6 262 413 C 263 413.4 263.6 412.4 264 413 C 264.4 413.6 263.4 415.4 264 416 C 264.6 416.6 266 416 267 416 C 268 416 268 415 269 416 C 270 417 271 420 272 421 C 273 422 272.6 420 274 421 C 275.4 422 277.4 424.6 279 426 C 280.6 427.4 281 427.6 282 428 C 283 428.4 283.6 427.4 284 428 C 284.4 428.6 283.4 430.4 284 431 C 284.6 431.6 286 431 287 431 C 288 431 288.6 430.6 289 431 C 289.4 431.4 288.4 432.6 289 433 C 289.6 433.4 291 433 292 433 C 293 433 293.6 433 294 433"></path><path stroke-width="15" stroke="rgba(0,0,0,1)" fill="none" stroke-linejoin="round" stroke-linecap="round" d="M 289 438 C 290 438 292 438 294 438 C 296 438 295.4 438 299 438 C 302.6 438 307 438 312 438 C 317 438 313 438 324 438 C 335 438 351.4 438 367 438 C 382.6 438 388 438 402 438 C 416 438 427.6 438 437 438 C 446.4 438 445 438 449 438 C 453 438 455 438 457 438 C 459 438 458.6 438.4 459 438 C 459.4 437.6 458.4 436.4 459 436 C 459.6 435.6 459.4 436 462 436 C 464.6 436 468 436 472 436 C 476 436 479.6 436 482 436 C 484.4 436 483 436 484 436 C 485 436 486.4 436 487 436"></path><path stroke-width="15" stroke="rgba(0,0,0,1)" fill="none" stroke-linejoin="round" stroke-linecap="round" d="M 107 179 C 108 179.4 110 180.2 112 181 C 114 181.8 115 181.6 117 183 C 119 184.4 116 184 122 188 C 128 192 137.6 196.4 147 203 C 156.4 209.6 162 215.4 169 221 C 176 226.6 170.4 222 182 231 C 193.6 240 214 256 227 266 C 240 276 231 269.6 247 281 C 263 292.4 287.6 310 307 323 C 326.4 336 332.6 339 344 346 C 355.4 353 359.4 355 364 358 C 368.6 361 366 360.4 367 361 C 368 361.6 368 361 369 361 C 370 361 371 361 372 361 C 373 361 373 361 374 361 C 375 361 376 361 377 361 C 378 361 378 360.6 379 361 C 380 361.4 381.4 362 382 363 C 382.6 364 381.6 365.4 382 366 C 382.4 366.6 383 366 384 366 C 385 366 386.4 365.6 387 366 C 387.6 366.4 386.6 367.6 387 368 C 387.4 368.4 388 368 389 368 C 390 368 391.4 367.4 392 368 C 392.6 368.6 391 370.4 392 371 C 393 371.6 395.6 371 397 371 C 398.4 371 398.6 371 399 371"></path></svg>