<svg width="512" height="512" version="1.1" xmlns="http://www.w3.org/2000/svg"><path stroke-width="15" stroke="rgba(0,0,0,1)" fill="none" stroke-linejoin="round" stroke-linecap="round" d="M 134 253 C 135 253 137 253 139 253 C 141 253 138.4 253 144 253 C 149.6 253 158.4 253 167 253 C 175.6 253 179 253 187 253 C 195 253 190 254 207 253 C 224 252 249 249 272 248 C 295 247 307 248 322 248 C 337 248 336.6 247.6 347 248 C 357.4 248.4 368.6 249.6 374 250"></path><path stroke-width="15" stroke="rgba(0,0,0,1)" fill="none" stroke-linejoin="round" stroke-linecap="round" d=""></path><path stroke-width="15" stroke="rgba(0,0,0,1)" fill="none" stroke-linejoin="round" stroke-linecap="round" d="M 237 60 C 236.6 60 236 60 235 60 C 234 60 233 60 232 60 C 231 60 231.4 59.6 230 60 C 228.6 60.4 227 61 225 62 C 223 63 222 64.4 220 65 C 218 65.6 216.6 64.6 215 65 C 213.4 65.4 213.6 66.6 212 67 C 210.4 67.4 210 66.4 207 67 C 204 67.6 199.4 69.4 197 70 C 194.6 70.6 196.4 69.6 195 70 C 193.6 70.4 192.6 71 190 72 C 187.4 73 184 74.4 182 75 C 180 75.6 181 75 180 75 C 179 75 179.6 74.6 177 75 C 174.4 75.4 170 76 167 77 C 164 78 163.4 79 162 80 C 160.6 81 161.4 81.6 160 82 C 158.6 82.4 157 81 155 82 C 153 83 152 86 150 87 C 148 88 148 86 145 87 C 142 88 138 90 135 92 C 132 94 131.6 95.4 130 97 C 128.4 98.6 128.6 99 127 100 C 125.4 101 124.4 99.6 122 102 C 119.6 104.4 117.4 108.4 115 112 C 112.6 115.6 112 117.4 110 120 C 108 122.6 107 122.6 105 125 C 103 127.4 102.6 129 100 132 C 97.4 135 94 137.4 92 140 C 90 142.6 93 139.6 90 145 C 87 150.4 81 160 77 167 C 73 174 72 176 70 180 C 68 184 67.6 185 67 187 C 66.4 189 67.4 188 67 190 C 66.6 192 65.4 194.6 65 197 C 64.6 199.4 65 199.4 65 202 C 65 204.6 65 206.4 65 210 C 65 213.6 65 215.6 65 220 C 65 224.4 65 229 65 232 C 65 235 65 231.4 65 235 C 65 238.6 65 245.6 65 250 C 65 254.4 65 255.6 65 257"></path><path stroke-width="15" stroke="rgba(0,0,0,1)" fill="none" stroke-linejoin="round" stroke-linecap="round" d="M 65 260 C 65 260.4 65 258 65 262 C 65 266 65 274.4 65 280 C 65 285.6 65 287.6 65 290 C 65 292.4 65 290 65 292 C 65 294 65 298 65 300 C 65 302 64.6 301 65 302 C 65.4 303 66.2 303.4 67 305 C 67.8 306.6 67.6 307.6 69 310 C 70.4 312.4 72.4 315 74 317 C 75.6 319 75.4 317 77 320 C 78.6 323 79 327.6 82 332 C 85 336.4 88.6 337.4 92 342 C 95.4 346.6 97 352 99 355 C 101 358 101 355.6 102 357 C 103 358.4 103 360.4 104 362 C 105 363.6 106 364 107 365 C 108 366 108.6 366 109 367 C 109.4 368 107 368 109 370 C 111 372 116.4 375 119 377 C 121.6 379 120.4 379 122 380 C 123.6 381 125.6 381 127 382 C 128.4 383 126.6 383 129 385 C 131.4 387 136.4 390 139 392 C 141.6 394 140.4 393.4 142 395 C 143.6 396.6 144.6 398 147 400 C 149.4 402 151 403 154 405 C 157 407 160 408.6 162 410 C 164 411.4 162 410 164 412 C 166 414 170 418.4 172 420 C 174 421.6 173 420 174 420 C 175 420 176 419.6 177 420 C 178 420.4 178 421.6 179 422 C 180 422.4 181 422 182 422 C 183 422 182 421.4 184 422 C 186 422.6 190 424.4 192 425 C 194 425.6 193 425 194 425 C 195 425 194.4 424.6 197 425 C 199.6 425.4 204.6 426.6 207 427 C 209.4 427.4 208 427 209 427 C 210 427 211 427 212 427 C 213 427 212.6 427 214 427 C 215.4 427 217 427 219 427 C 221 427 222.4 427 224 427 C 225.6 427 226 426.4 227 427 C 228 427.6 227.6 429.4 229 430 C 230.4 430.6 232.4 430 234 430 C 235.6 430 236 430 237 430 C 238 430 237.6 430 239 430 C 240.4 430 243 430 244 430"></path><path stroke-width="15" stroke="rgba(0,0,0,1)" fill="none" stroke-linejoin="round" stroke-linecap="round" d="M 249 432 C 249.6 432 251 432 252 432 C 253 432 253 432 254 432 C 255 432 255.4 432 257 432 C 258.6 432 260.6 432 262 432 C 263.4 432 262.6 432 264 432 C 265.4 432 267 432 269 432 C 271 432 272.4 432 274 432 C 275.6 432 275.4 432 277 432 C 278.6 432 280.6 432.4 282 432 C 283.4 431.6 283 430.4 284 430 C 285 429.6 286 430 287 430 C 288 430 288 430 289 430 C 290 430 290 430 292 430 C 294 430 296.6 430 299 430 C 301.4 430 302.4 430 304 430 C 305.6 430 304.4 430.4 307 430 C 309.6 429.6 314 428.4 317 428 C 320 427.6 319.6 428 322 428 C 324.4 428 327 428 329 428 C 331 428 331 428.6 332 428 C 333 427.4 332.6 425.6 334 425 C 335.4 424.4 337.4 425 339 425 C 340.6 425 340.4 425.4 342 425 C 343.6 424.6 345 423.4 347 423 C 349 422.6 350.6 423.6 352 423 C 353.4 422.4 352.6 421 354 420 C 355.4 419 357 419 359 418 C 361 417 362 416 364 415 C 366 414 368 414 369 413 C 370 412 367.4 411 369 410 C 370.6 409 375 409.4 377 408 C 379 406.6 378 404 379 403 C 380 402 381 403.6 382 403 C 383 402.4 382 401.6 384 400 C 386 398.4 389.4 397 392 395 C 394.6 393 396 391.4 397 390 C 398 388.6 396.6 389 397 388 C 397.4 387 398 386 399 385 C 400 384 401 384 402 383 C 403 382 402.6 382 404 380 C 405.4 378 408 375.4 409 373 C 410 370.6 408.4 369 409 368 C 409.6 367 411 369.6 412 368 C 413 366.4 413 362 414 360 C 415 358 416 359 417 358 C 418 357 418.6 357 419 355 C 419.4 353 418.4 350 419 348 C 419.6 346 421 346 422 345 C 423 344 423.6 344 424 343 C 424.4 342 423.4 342 424 340 C 424.6 338 426 335.4 427 333 C 428 330.6 428.6 329.6 429 328 C 429.4 326.4 428.4 327.6 429 325 C 429.6 322.4 431.4 317.4 432 315 C 432.6 312.6 431.6 314.4 432 313 C 432.4 311.6 433.6 310.6 434 308 C 434.4 305.4 433.4 302.6 434 300 C 434.6 297.4 436.4 296.4 437 295 C 437.6 293.6 437 296 437 293 C 437 290 437 284 437 280 C 437 276 437 275.4 437 273 C 437 270.6 436.6 270 437 268 C 437.4 266 438.6 265 439 263 C 439.4 261 439 259.6 439 258 C 439 256.4 439 256.6 439 255 C 439 253.4 439 251.4 439 250 C 439 248.6 439 249 439 248 C 439 247 439 246 439 245 C 439 244 439 244 439 243 C 439 242 439 240.6 439 240"></path><path stroke-width="15" stroke="rgba(0,0,0,1)" fill="none" stroke-linejoin="round" stroke-linecap="round" d="M 437 235 C 437 234.6 436.6 234 437 233 C 437.4 232 438.6 231 439 230 C 439.4 229 439 229.4 439 228 C 439 226.6 439 224.6 439 223 C 439 221.4 439 221 439 220 C 439 219 439 219 439 218 C 439 217 439 217 439 215 C 439 213 439 210.4 439 208 C 439 205.6 439.4 205 439 203 C 438.6 201 437.8 200 437 198 C 436.2 196 436 195.6 435 193 C 434 190.4 433 187.6 432 185 C 431 182.4 430.4 181.4 430 180 C 429.6 178.6 430.6 180 430 178 C 429.4 176 428 172.6 427 170 C 426 167.4 425.4 166.4 425 165 C 424.6 163.6 425.6 165 425 163 C 424.4 161 423 157 422 155 C 421 153 420.4 154.4 420 153 C 419.6 151.6 420.6 150.6 420 148 C 419.4 145.4 418 142 417 140 C 416 138 415.4 139 415 138 C 414.6 137 415.6 136 415 135 C 414.4 134 413.6 134.4 412 133 C 410.4 131.6 408.4 130 407 128 C 405.6 126 406 124.6 405 123 C 404 121.4 403 121 402 120 C 401 119 401 118.4 400 118 C 399 117.6 397.6 118.6 397 118 C 396.4 117.4 398 116 397 115 C 396 114 393.4 113.4 392 113 C 390.6 112.6 391 113.6 390 113 C 389 112.4 388.6 111 387 110 C 385.4 109 383.4 109 382 108 C 380.6 107 382 106.6 380 105 C 378 103.4 375 101.4 372 100 C 369 98.6 367 98.4 365 98 C 363 97.6 364 99 362 98 C 360 97 357 94.6 355 93 C 353 91.4 353 91 352 90 C 351 89 351.4 89 350 88 C 348.6 87 347 86 345 85 C 343 84 341.6 83.4 340 83 C 338.4 82.6 337.6 83.6 337 83 C 336.4 82.4 337.4 80.6 337 80 C 336.6 79.4 337 81 335 80 C 333 79 329 76 327 75 C 325 74 327 76 325 75 C 323 74 319 71 317 70 C 315 69 316 70.4 315 70 C 314 69.6 313.6 68.4 312 68 C 310.4 67.6 308.4 68 307 68 C 305.6 68 306 68.6 305 68 C 304 67.4 303 65.6 302 65 C 301 64.4 301 65 300 65 C 299 65 298.6 65.4 297 65 C 295.4 64.6 294 63.4 292 63 C 290 62.6 289 63 287 63 C 285 63 283 63.6 282 63 C 281 62.4 282.4 60.6 282 60 C 281.6 59.4 282 60 280 60 C 278 60 274.6 60 272 60 C 269.4 60 268.4 60 267 60 C 265.6 60 266.4 60.4 265 60 C 263.6 59.6 261.6 58.4 260 58 C 258.4 57.6 258.6 58 257 58 C 255.4 58 254 58 252 58 C 250 58 249 58 247 58 C 245 58 243.4 58 242 58 C 240.6 58 242 58 240 58 C 238 58 233.6 58 232 58"></path></svg>