<svg width="512" height="512" version="1.1" xmlns="http://www.w3.org/2000/svg"><path stroke-width="15" stroke="rgba(0,0,0,1)" fill="none" stroke-linejoin="round" stroke-linecap="round" d="M 85 373 C 85 373.6 85.4 375 85 376 C 84.6 377 83.4 377 83 378 C 82.6 379 84 379.4 83 381 C 82 382.6 79.4 384.6 78 386 C 76.6 387.4 76.4 386.6 76 388 C 75.6 389.4 76.6 392 76 393 C 75.4 394 74 391.4 73 393 C 72 394.6 72 398 71 401 C 70 404 69 406 68 408 C 67 410 66.4 409 66 411 C 65.6 413 66.6 416 66 418 C 65.4 420 63.6 419.4 63 421 C 62.4 422.6 63.4 424 63 426 C 62.6 428 62 429.6 61 431 C 60 432.4 58.6 432 58 433 C 57.4 434 58.4 434.4 58 436 C 57.6 437.6 56.4 439.6 56 441 C 55.6 442.4 56.6 442.6 56 443 C 55.4 443.4 53.6 442.4 53 443 C 52.4 443.6 53.4 445 53 446 C 52.6 447 51.4 447 51 448 C 50.6 449 51.6 450 51 451 C 50.4 452 48.6 452 48 453 C 47.4 454 47.6 455.4 48 456 C 48.4 456.6 49 456 50 456 C 51 456 52 456 53 456 C 54 456 54.6 456.4 55 456 C 55.4 455.6 54.4 454.4 55 454 C 55.6 453.6 56.4 454.6 58 454 C 59.6 453.4 61.6 451.6 63 451 C 64.4 450.4 63.6 451.4 65 451 C 66.4 450.6 68.4 450 70 449 C 71.6 448 71.4 446.6 73 446 C 74.6 445.4 76.6 446.4 78 446 C 79.4 445.6 79 444.4 80 444 C 81 443.6 81.4 444.6 83 444 C 84.6 443.4 86.6 441.6 88 441 C 89.4 440.4 89 441.4 90 441 C 91 440.6 91.4 439.4 93 439 C 94.6 438.6 96.6 439.6 98 439 C 99.4 438.4 99 437 100 436 C 101 435 101.4 434.4 103 434 C 104.6 433.6 106 434 108 434 C 110 434 111.6 434.6 113 434 C 114.4 433.4 113.6 431.6 115 431 C 116.4 430.4 118.4 431.4 120 431 C 121.6 430.6 121.4 430 123 429 C 124.6 428 126.6 426.6 128 426 C 129.4 425.4 128.6 426.4 130 426 C 131.4 425.6 133.4 424.4 135 424 C 136.6 423.6 137 424 138 424 C 139 424 139 424 140 424 C 141 424 142 424 143 424 C 144 424 144.6 424.6 145 424 C 145.4 423.4 144.4 421.6 145 421 C 145.6 420.4 147.8 421 148 421 C 148.2 421 146.4 421.4 146 421 C 145.6 420.6 146 420 146 419 C 146 418 146.6 416.6 146 416 C 145.4 415.4 143.6 416.4 143 416 C 142.4 415.6 143.4 414.4 143 414 C 142.6 413.6 141.4 414.6 141 414 C 140.6 413.4 141.6 412 141 411 C 140.4 410 138.6 410 138 409 C 137.4 408 138.4 407.6 138 406 C 137.6 404.4 137 402.4 136 401 C 135 399.6 134 399.4 133 399 C 132 398.6 131.4 399.6 131 399 C 130.6 398.4 131.6 396.6 131 396 C 130.4 395.4 129 396.4 128 396 C 127 395.6 126.4 395 126 394 C 125.6 393 126.6 392 126 391 C 125.4 390 124 390 123 389 C 122 388 122 387.6 121 386 C 120 384.4 119 382.4 118 381 C 117 379.6 117 380 116 379 C 115 378 113.6 377 113 376 C 112.4 375 113.4 374.4 113 374 C 112.6 373.6 112 374.6 111 374 C 110 373.4 108.6 372 108 371 C 107.4 370 109 370 108 369 C 107 368 104 367 103 366 C 102 365 103.4 364.4 103 364 C 102.6 363.6 101.4 364.6 101 364 C 100.6 363.4 101.6 361.6 101 361 C 100.4 360.4 98.6 361.4 98 361 C 97.4 360.6 98.4 359.4 98 359 C 97.6 358.6 96.4 359.6 96 359 C 95.6 358.4 96.6 356.6 96 356 C 95.4 355.4 93.6 355.6 93 356 C 92.4 356.4 93.4 357 93 358 C 92.6 359 92 360 91 361 C 90 362 88.6 362 88 363 C 87.4 364 88.4 365 88 366 C 87.6 367 86.4 367 86 368 C 85.6 369 86.6 370.4 86 371 C 85.4 371.6 83.6 371 83 371"></path><path stroke-width="15" stroke="rgba(0,0,0,1)" fill="none" stroke-linejoin="round" stroke-linecap="round" d="M 100 348 C 100.6 348 102 348.4 103 348 C 104 347.6 104 346.4 105 346 C 106 345.6 107 346.4 108 346 C 109 345.6 109.6 345 110 344 C 110.4 343 109.4 342 110 341 C 110.6 340 112 340 113 339 C 114 338 114 337 115 336 C 116 335 117 334.4 118 334 C 119 333.6 119.6 334.6 120 334 C 120.4 333.4 119.4 331.6 120 331 C 120.6 330.4 122.4 331.4 123 331 C 123.6 330.6 122.6 329.4 123 329 C 123.4 328.6 124.6 329.6 125 329 C 125.4 328.4 124.4 326.6 125 326 C 125.6 325.4 127 326.4 128 326 C 129 325.6 129 325 130 324 C 131 323 132 322 133 321 C 134 320 134 320 135 319 C 136 318 137 317 138 316 C 139 315 139 315 140 314 C 141 313 141.4 312.6 143 311 C 144.6 309.4 146.6 307.4 148 306 C 149.4 304.6 149 305 150 304 C 151 303 152 302 153 301 C 154 300 154 300 155 299 C 156 298 157 297 158 296 C 159 295 159 295 160 294 C 161 293 162 292 163 291 C 164 290 164.6 290 165 289 C 165.4 288 164 287.6 165 286 C 166 284.4 168 283 170 281 C 172 279 174 277.4 175 276 C 176 274.6 174 275.4 175 274 C 176 272.6 178 270.6 180 269 C 182 267.4 184 267 185 266 C 186 265 183.4 266 185 264 C 186.6 262 191 258 193 256 C 195 254 194 255 195 254 C 196 253 197.4 252 198 251 C 198.6 250 197.6 249.4 198 249 C 198.4 248.6 199 249.6 200 249 C 201 248.4 202 247 203 246 C 204 245 204 245 205 244 C 206 243 207 242 208 241 C 209 240 209 240 210 239 C 211 238 212 236.6 213 236 C 214 235.4 214 236.4 215 236 C 216 235.6 216.4 235.4 218 234 C 219.6 232.6 221 230.6 223 229 C 225 227.4 226.6 227 228 226 C 229.4 225 229 225 230 224 C 231 223 232 221.6 233 221 C 234 220.4 234 221.4 235 221 C 236 220.6 236.4 220 238 219 C 239.6 218 241.6 217 243 216 C 244.4 215 244.6 215 245 214 C 245.4 213 244.4 211.6 245 211 C 245.6 210.4 247 211.4 248 211 C 249 210.6 249 210 250 209 C 251 208 252 207 253 206 C 254 205 254 205 255 204 C 256 203 257 201.6 258 201 C 259 200.4 258.6 202 260 201 C 261.4 200 263.4 198 265 196 C 266.6 194 267 192.4 268 191 C 269 189.6 269 189.4 270 189 C 271 188.6 272.4 189.6 273 189 C 273.6 188.4 272.6 186.6 273 186 C 273.4 185.4 274.6 186.4 275 186 C 275.4 185.6 274.4 185 275 184 C 275.6 183 277.4 182 278 181 C 278.6 180 277.6 179.4 278 179 C 278.4 178.6 279 179.6 280 179 C 281 178.4 282 177 283 176 C 284 175 284 175 285 174 C 286 173 286.4 172.6 288 171 C 289.6 169.4 291.6 167.4 293 166 C 294.4 164.6 293 166 295 164 C 297 162 301 158 303 156 C 305 154 304 154.4 305 154 C 306 153.6 307 154.6 308 154 C 309 153.4 309 152 310 151 C 311 150 312 149.4 313 149 C 314 148.6 314.6 149.6 315 149 C 315.4 148.4 314.4 147 315 146 C 315.6 145 317 144.4 318 144 C 319 143.6 319 145 320 144 C 321 143 322 140 323 139 C 324 138 324 139.6 325 139 C 326 138.4 327 137 328 136 C 329 135 328.6 135 330 134 C 331.4 133 334 132 335 131 C 336 130 334 130 335 129 C 336 128 339 127 340 126 C 341 125 339.4 124.4 340 124 C 340.6 123.6 342 124.6 343 124 C 344 123.4 344 122 345 121 C 346 120 347 119.4 348 119 C 349 118.6 349.6 119.6 350 119 C 350.4 118.4 350 116.6 350 116"></path><path stroke-width="15" stroke="rgba(0,0,0,1)" fill="none" stroke-linejoin="round" stroke-linecap="round" d="M 145 419 C 145 418.4 144.4 416.6 145 416 C 145.6 415.4 147 416 148 416 C 149 416 149 416.4 150 416 C 151 415.6 152 414.4 153 414 C 154 413.6 154.6 414.6 155 414 C 155.4 413.4 154.4 411.6 155 411 C 155.6 410.4 157 411.4 158 411 C 159 410.6 159 410 160 409 C 161 408 162 407 163 406 C 164 405 164 404.4 165 404 C 166 403.6 167.4 404.6 168 404 C 168.6 403.4 167.6 401.6 168 401 C 168.4 400.4 169 401 170 401 C 171 401 172 401.4 173 401 C 174 400.6 174 400 175 399 C 176 398 177 397 178 396 C 179 395 179 395 180 394 C 181 393 182 392 183 391 C 184 390 184 390 185 389 C 186 388 186.4 387.6 188 386 C 189.6 384.4 192 382.4 193 381 C 194 379.6 192.6 380 193 379 C 193.4 378 194 377 195 376 C 196 375 196.4 375.4 198 374 C 199.6 372.6 202 370.6 203 369 C 204 367.4 202.6 366.6 203 366 C 203.4 365.4 204.6 366.4 205 366 C 205.4 365.6 204.4 364.4 205 364 C 205.6 363.6 207 364.6 208 364 C 209 363.4 209 362 210 361 C 211 360 212.4 360 213 359 C 213.6 358 212.6 357 213 356 C 213.4 355 214 355 215 354 C 216 353 217 352 218 351 C 219 350 219 350 220 349 C 221 348 222 347 223 346 C 224 345 224 345 225 344 C 226 343 227 342 228 341 C 229 340 229 340 230 339 C 231 338 232 336.6 233 336 C 234 335.4 233.6 337.4 235 336 C 236.4 334.6 238 331.4 240 329 C 242 326.6 243.4 325.6 245 324 C 246.6 322.4 247 322 248 321 C 249 320 249 319.4 250 319 C 251 318.6 252 320 253 319 C 254 318 253.6 315.6 255 314 C 256.4 312.4 259 312 260 311 C 261 310 259.4 309.4 260 309 C 260.6 308.6 262 309.6 263 309 C 264 308.4 264 307 265 306 C 266 305 267 304.4 268 304 C 269 303.6 269.6 304.6 270 304 C 270.4 303.4 269.4 301.6 270 301 C 270.6 300.4 272.4 301.4 273 301 C 273.6 300.6 272.6 300 273 299 C 273.4 298 274 296.6 275 296 C 276 295.4 277 296.4 278 296 C 279 295.6 279 295 280 294 C 281 293 282.4 292 283 291 C 283.6 290 282.6 289.4 283 289 C 283.4 288.6 284 289.6 285 289 C 286 288.4 287 286.6 288 286 C 289 285.4 289 286.4 290 286 C 291 285.6 292 285 293 284 C 294 283 294 281.6 295 281 C 296 280.4 297.4 281.4 298 281 C 298.6 280.6 297.6 279.4 298 279 C 298.4 278.6 299.6 279.6 300 279 C 300.4 278.4 299.4 277 300 276 C 300.6 275 302 274.4 303 274 C 304 273.6 303.6 275 305 274 C 306.4 273 309 270.6 310 269 C 311 267.4 309.4 266.6 310 266 C 310.6 265.4 312.4 266.4 313 266 C 313.6 265.6 312.6 264.4 313 264 C 313.4 263.6 313.6 265 315 264 C 316.4 263 318 261 320 259 C 322 257 324 255.6 325 254 C 326 252.4 324.4 252 325 251 C 325.6 250 327 249.4 328 249 C 329 248.6 329 250 330 249 C 331 248 332 245.6 333 244 C 334 242.4 334.6 242 335 241 C 335.4 240 334.4 239.4 335 239 C 335.6 238.6 337 239.6 338 239 C 339 238.4 339.6 237 340 236 C 340.4 235 339.4 234.4 340 234 C 340.6 233.6 342.4 234.6 343 234 C 343.6 233.4 342.6 231.6 343 231 C 343.4 230.4 344 231 345 231 C 346 231 347.4 231.4 348 231 C 348.6 230.6 347.6 230 348 229 C 348.4 228 349 227 350 226 C 351 225 352 225.4 353 224 C 354 222.6 354 220.6 355 219 C 356 217.4 357 216.6 358 216 C 359 215.4 359.6 216.4 360 216 C 360.4 215.6 359.4 214.4 360 214 C 360.6 213.6 362 214.6 363 214 C 364 213.4 364 212.6 365 211 C 366 209.4 367 207 368 206 C 369 205 369 206.4 370 206 C 371 205.6 372 205 373 204 C 374 203 374 202 375 201 C 376 200 376.4 200.4 378 199 C 379.6 197.6 381.6 195.6 383 194 C 384.4 192.4 384.6 192 385 191 C 385.4 190 384.4 189.4 385 189 C 385.6 188.6 387.4 189.6 388 189 C 388.6 188.4 387.6 186.6 388 186 C 388.4 185.4 389 186.4 390 186 C 391 185.6 392.4 185 393 184 C 393.6 183 392.6 181.6 393 181 C 393.4 180.4 394 181.4 395 181 C 396 180.6 397 179.4 398 179 C 399 178.6 399.6 179.6 400 179 C 400.4 178.4 399.4 177 400 176 C 400.6 175 402 175 403 174 C 404 173 404 172 405 171 C 406 170 407.4 170 408 169 C 408.6 168 407.6 166.6 408 166 C 408.4 165.4 409.6 166 410 166"></path><path stroke-width="15" stroke="rgba(0,0,0,1)" fill="none" stroke-linejoin="round" stroke-linecap="round" d="M 410 164 C 410 163 410 160.6 410 159 C 410 157.4 410 157 410 156 C 410 155 410.4 154.4 410 154 C 409.6 153.6 408.8 154 408 154 C 407.2 154 406.4 154.6 406 154 C 405.6 153.4 406.6 152 406 151 C 405.4 150 404 149.4 403 149 C 402 148.6 401.4 149.6 401 149 C 400.6 148.4 401.6 147 401 146 C 400.4 145 399 144.4 398 144 C 397 143.6 396.4 144.6 396 144 C 395.6 143.4 396.6 141.6 396 141 C 395.4 140.4 393.6 141.4 393 141 C 392.4 140.6 393.4 140 393 139 C 392.6 138 392 136.6 391 136 C 390 135.4 388.6 136.4 388 136 C 387.4 135.6 388.4 134.4 388 134 C 387.6 133.6 386.4 134.6 386 134 C 385.6 133.4 386.6 131.6 386 131 C 385.4 130.4 384 131.4 383 131 C 382 130.6 382 129.4 381 129 C 380 128.6 378.6 129.6 378 129 C 377.4 128.4 378.4 126.6 378 126 C 377.6 125.4 377 126 376 126 C 375 126 373.6 126.4 373 126 C 372.4 125.6 373.4 124.4 373 124 C 372.6 123.6 371.4 124.6 371 124 C 370.6 123.4 371.6 121.6 371 121 C 370.4 120.4 369 121.4 368 121 C 367 120.6 366.4 120 366 119 C 365.6 118 367 117.6 366 116 C 365 114.4 362.6 112 361 111 C 359.4 110 359 111 358 111 C 357 111 357 111 356 111 C 355 111 353.6 111 353 111"></path><path stroke-width="15" stroke="rgba(0,0,0,1)" fill="none" stroke-linejoin="round" stroke-linecap="round" d="M 380 81 C 380 81.4 379.4 82.6 380 83 C 380.6 83.4 382 82.4 383 83 C 384 83.6 384 85.4 385 86 C 386 86.6 387 85.6 388 86 C 389 86.4 389 87.6 390 88 C 391 88.4 392 88 393 88 C 394 88 394.6 87.4 395 88 C 395.4 88.6 394.4 90.4 395 91 C 395.6 91.6 397.4 90.6 398 91 C 398.6 91.4 397.6 92 398 93 C 398.4 94 399 95.4 400 96 C 401 96.6 402 95 403 96 C 404 97 403.6 99 405 101 C 406.4 103 408.4 104.6 410 106 C 411.6 107.4 412.4 107 413 108 C 413.6 109 412.6 110.4 413 111 C 413.4 111.6 414.6 110.6 415 111 C 415.4 111.4 415 112 415 113 C 415 114 414.4 115.4 415 116 C 415.6 116.6 417.4 115.6 418 116 C 418.6 116.4 417.6 117 418 118 C 418.4 119 419 120.4 420 121 C 421 121.6 422 120.6 423 121 C 424 121.4 424 122.6 425 123 C 426 123.4 427 122.4 428 123 C 429 123.6 429 125 430 126 C 431 127 432 127.6 433 128 C 434 128.4 434.6 127.4 435 128 C 435.4 128.6 434.4 130.4 435 131 C 435.6 131.6 437.4 130.6 438 131 C 438.6 131.4 437.6 132 438 133 C 438.4 134 439 135.4 440 136 C 441 136.6 442.4 135.6 443 136 C 443.6 136.4 443 137.6 443 138"></path><path stroke-width="15" stroke="rgba(0,0,0,1)" fill="none" stroke-linejoin="round" stroke-linecap="round" d="M 383 76 C 383 75 382.6 72 383 71 C 383.4 70 383.6 72 385 71 C 386.4 70 388.4 67.4 390 66 C 391.6 64.6 392 65 393 64 C 394 63 394 61.6 395 61 C 396 60.4 397 61.4 398 61 C 399 60.6 399 59.4 400 59 C 401 58.6 402 59.6 403 59 C 404 58.4 404 56.6 405 56 C 406 55.4 407 56 408 56 C 409 56 409 56 410 56 C 411 56 412 56 413 56 C 414 56 413.6 56 415 56 C 416.4 56 418 56 420 56 C 422 56 423.4 56 425 56 C 426.6 56 426.4 56 428 56 C 429.6 56 431.6 56 433 56 C 434.4 56 434 56 435 56 C 436 56 437 55.6 438 56 C 439 56.4 438.6 57 440 58 C 441.4 59 443.4 60 445 61 C 446.6 62 447 62 448 63 C 449 64 449.6 65 450 66 C 450.4 67 449.4 67 450 68 C 450.6 69 452.4 70 453 71 C 453.6 72 452.6 72.6 453 73 C 453.4 73.4 454.6 72 455 73 C 455.4 74 454.4 76.4 455 78 C 455.6 79.6 457.4 80 458 81 C 458.6 82 457.6 82.6 458 83 C 458.4 83.4 459.6 82.4 460 83 C 460.4 83.6 460 85 460 86 C 460 87 460 86.6 460 88 C 460 89.4 459.4 91.4 460 93 C 460.6 94.6 462.4 95 463 96 C 463.6 97 463 96.6 463 98 C 463 99.4 463.4 101.4 463 103 C 462.6 104.6 461.4 105 461 106 C 460.6 107 461 106.6 461 108 C 461 109.4 461.6 112 461 113 C 460.4 114 458.6 112 458 113 C 457.4 114 458.4 116.4 458 118 C 457.6 119.6 457 120 456 121 C 455 122 454 122 453 123 C 452 124 452 125.4 451 126 C 450 126.6 448.6 125.6 448 126 C 447.4 126.4 448 127 448 128 C 448 129 448.4 130.4 448 131 C 447.6 131.6 446.4 131 446 131"></path><path stroke-width="15" stroke="rgba(0,0,0,1)" fill="none" stroke-linejoin="round" stroke-linecap="round" d="M 130 386 C 130.6 386 131.4 387.4 133 386 C 134.6 384.6 135.6 382 138 379 C 140.4 376 142 374 145 371 C 148 368 151 366 153 364 C 155 362 153 363 155 361 C 157 359 160 357 163 354 C 166 351 167.6 348.6 170 346 C 172.4 343.4 173 343 175 341 C 177 339 177 339 180 336 C 183 333 187 329 190 326 C 193 323 193.4 322 195 321 C 196.6 320 195.4 323 198 321 C 200.6 319 204.6 315 208 311 C 211.4 307 211.6 305 215 301 C 218.4 297 222 294.4 225 291 C 228 287.6 227.4 287.4 230 284 C 232.6 280.6 236 276.6 238 274 C 240 271.4 239 272 240 271 C 241 270 242 270 243 269 C 244 268 244 267 245 266 C 246 265 246 266 248 264 C 250 262 252 259 255 256 C 258 253 260.4 252 263 249 C 265.6 246 266 243 268 241 C 270 239 270.6 241 273 239 C 275.4 237 277 234 280 231 C 283 228 284.4 227.4 288 224 C 291.6 220.6 295.6 217 298 214 C 300.4 211 298 211 300 209 C 302 207 305.4 206 308 204 C 310.6 202 311.6 200.6 313 199 C 314.4 197.4 312 198 315 196 C 318 194 324.4 191.4 328 189 C 331.6 186.6 331 185.6 333 184 C 335 182.4 336 182.6 338 181 C 340 179.4 341 178 343 176 C 345 174 345.6 172.4 348 171 C 350.4 169.6 353.6 170 355 169 C 356.4 168 353.4 168 355 166 C 356.6 164 360.4 161 363 159 C 365.6 157 366 157 368 156 C 370 155 371.6 155 373 154 C 374.4 153 374 152 375 151 C 376 150 377 149.4 378 149 C 379 148.6 379.6 149.6 380 149 C 380.4 148.4 379 147.6 380 146 C 381 144.4 383.4 142 385 141 C 386.6 140 387.4 141 388 141"></path></svg>