<svg width="512" height="512" version="1.1" xmlns="http://www.w3.org/2000/svg"><path stroke-width="15" stroke="rgba(0,0,0,1)" fill="none" stroke-linejoin="round" stroke-linecap="round" d="M 134 253 C 135 253 137 253 139 253 C 141 253 138.4 253 144 253 C 149.6 253 158.4 253 167 253 C 175.6 253 179 253 187 253 C 195 253 190 254 207 253 C 224 252 249 249 272 248 C 295 247 307 248 322 248 C 337 248 336.6 247.6 347 248 C 357.4 248.4 368.6 249.6 374 250"></path><path stroke-width="15" stroke="rgba(0,0,0,1)" fill="none" stroke-linejoin="round" stroke-linecap="round" d=""></path><path stroke-width="15" stroke="rgba(0,0,0,1)" fill="none" stroke-linejoin="round" stroke-linecap="round" d="M 252 123 C 252 123.8 252 123.6 252 127 C 252 130.4 252 134 252 140 C 252 146 252 151 252 157 C 252 163 251.6 160.4 252 170 C 252.4 179.6 252.6 188 254 205 C 255.4 222 258 239 259 255 C 260 271 258 269.6 259 285 C 260 300.4 262.4 319 264 332 C 265.6 345 266.4 344.4 267 350 C 267.6 355.6 267 356.6 267 360 C 267 363.4 267 365 267 367 C 267 369 267 369.4 267 370"></path><path stroke-width="15" stroke="rgba(0,0,0,1)" fill="none" stroke-linejoin="round" stroke-linecap="round" d="M 245 65 C 244.4 65 244 65 242 65 C 240 65 237 65 235 65 C 233 65 234.6 64.6 232 65 C 229.4 65.4 225.4 66 222 67 C 218.6 68 217.4 69 215 70 C 212.6 71 211.6 71.6 210 72 C 208.4 72.4 209.6 71.4 207 72 C 204.4 72.6 201 73.4 197 75 C 193 76.6 190 79 187 80 C 184 81 185 79 182 80 C 179 81 175.4 83 172 85 C 168.6 87 167 88.6 165 90 C 163 91.4 164 91 162 92 C 160 93 158.4 93 155 95 C 151.6 97 149 98.6 145 102 C 141 105.4 138 109 135 112 C 132 115 133.6 114.4 130 117 C 126.4 119.6 120.6 122.4 117 125 C 113.4 127.6 114 128 112 130 C 110 132 110.4 131 107 135 C 103.6 139 99 145.6 95 150 C 91 154.4 89 154.6 87 157 C 85 159.4 86.4 159.4 85 162 C 83.6 164.6 82 166.4 80 170 C 78 173.6 76.6 177 75 180 C 73.4 183 73.6 181.6 72 185 C 70.4 188.4 68.4 192 67 197 C 65.6 202 65.4 206.4 65 210 C 64.6 213.6 65.6 212 65 215 C 64.4 218 63 221.6 62 225 C 61 228.4 60.4 229.6 60 232 C 59.6 234.4 60 235.4 60 237 C 60 238.6 59.6 239.4 60 240 C 60.4 240.6 61.6 239.6 62 240 C 62.4 240.4 62 241 62 242 C 62 243 62 244 62 245 C 62 246 62 246 62 247 C 62 248 61.6 249.4 62 250 C 62.4 250.6 63.6 249 64 250 C 64.4 251 63.4 254 64 255 C 64.6 256 66.4 254.6 67 255 C 67.6 255.4 67 256.6 67 257"></path><path stroke-width="15" stroke="rgba(0,0,0,1)" fill="none" stroke-linejoin="round" stroke-linecap="round" d="M 64 258 C 64.6 258.4 66 259.2 67 260 C 68 260.8 68.6 260 69 262 C 69.4 264 68.4 267.4 69 270 C 69.6 272.6 71.4 273.6 72 275 C 72.6 276.4 72 276 72 277 C 72 278 71.6 277 72 280 C 72.4 283 73.6 288 74 292 C 74.4 296 74 298 74 300 C 74 302 73.4 299.6 74 302 C 74.6 304.4 75.4 308 77 312 C 78.6 316 80.6 319.4 82 322 C 83.4 324.6 82.6 322.4 84 325 C 85.4 327.6 87 332 89 335 C 91 338 92 337.6 94 340 C 96 342.4 97.4 345 99 347 C 100.6 349 100 347.4 102 350 C 104 352.6 106.6 356.6 109 360 C 111.4 363.4 112 364.6 114 367 C 116 369.4 116 369 119 372 C 122 375 126 379 129 382 C 132 385 132.4 385 134 387 C 135.6 389 134.4 388.4 137 392 C 139.6 395.6 144 402 147 405 C 150 408 150.6 406 152 407 C 153.4 408 153 409 154 410 C 155 411 155 410.6 157 412 C 159 413.4 162.6 415.4 164 417 C 165.4 418.6 162.4 419 164 420 C 165.6 421 169 420.6 172 422 C 175 423.4 176.6 426 179 427 C 181.4 428 181.4 426.4 184 427 C 186.6 427.6 189.4 428.4 192 430 C 194.6 431.6 195 433.6 197 435 C 199 436.4 200.6 436.6 202 437 C 203.4 437.4 202 436.4 204 437 C 206 437.6 209.4 439 212 440 C 214.6 441 215.6 441.6 217 442 C 218.4 442.4 215.6 441.4 219 442 C 222.4 442.6 228.4 444.4 234 445 C 239.6 445.6 243 444.6 247 445 C 251 445.4 252 446.6 254 447 C 256 447.4 256 447 257 447 C 258 447 258 447 259 447 C 260 447 261 447 262 447 C 263 447 263 447 264 447 C 265 447 266 447 267 447 C 268 447 268.6 447.4 269 447 C 269.4 446.6 268.4 445.4 269 445 C 269.6 444.6 271.8 445 272 445 C 272.2 445 270.4 445 270 445"></path><path stroke-width="15" stroke="rgba(0,0,0,1)" fill="none" stroke-linejoin="round" stroke-linecap="round" d="M 272 445 C 272.4 445 273 445.4 274 445 C 275 444.6 275.4 443.4 277 443 C 278.6 442.6 279.6 443.6 282 443 C 284.4 442.4 287 441 289 440 C 291 439 290.4 439 292 438 C 293.6 437 295 435.6 297 435 C 299 434.4 300.6 435.4 302 435 C 303.4 434.6 302 434 304 433 C 306 432 308.4 431.6 312 430 C 315.6 428.4 319.6 426 322 425 C 324.4 424 322.6 425.4 324 425 C 325.4 424.6 327 424.4 329 423 C 331 421.6 332.4 419.6 334 418 C 335.6 416.4 334.4 416.6 337 415 C 339.6 413.4 344 412 347 410 C 350 408 350 406 352 405 C 354 404 355 406 357 405 C 359 404 360.6 401.4 362 400 C 363.4 398.6 361.6 400.4 364 398 C 366.4 395.6 370.4 391 374 388 C 377.6 385 379.4 385 382 383 C 384.6 381 384 381 387 378 C 390 375 394 371.6 397 368 C 400 364.4 399.6 363 402 360 C 404.4 357 407 355 409 353 C 411 351 410 353 412 350 C 414 347 415.6 343.4 419 338 C 422.4 332.6 426.4 326.6 429 323 C 431.6 319.4 431 322.6 432 320 C 433 317.4 433 313 434 310 C 435 307 436 306.4 437 305 C 438 303.6 438.6 306 439 303 C 439.4 300 439 294.6 439 290 C 439 285.4 439 282.4 439 280 C 439 277.6 439 280.4 439 278 C 439 275.6 439 271.6 439 268 C 439 264.4 439 262 439 260 C 439 258 439 258.4 439 258"></path><path stroke-width="15" stroke="rgba(0,0,0,1)" fill="none" stroke-linejoin="round" stroke-linecap="round" d="M 439 255 C 439 254.6 439 255 439 253 C 439 251 439 247 439 245 C 439 243 439 245 439 243 C 439 241 439.4 238 439 235 C 438.6 232 437.4 230.4 437 228 C 436.6 225.6 437 226 437 223 C 437 220 437 216.6 437 213 C 437 209.4 437 207.6 437 205 C 437 202.4 438 204 437 200 C 436 196 433.4 190 432 185 C 430.6 180 430.4 177.4 430 175 C 429.6 172.6 430.6 175 430 173 C 429.4 171 428 167.6 427 165 C 426 162.4 425.4 162 425 160 C 424.6 158 425.6 157.4 425 155 C 424.4 152.6 423 150 422 148 C 421 146 421 146 420 145 C 419 144 417.6 144 417 143 C 416.4 142 417.4 140.6 417 140 C 416.6 139.4 417 141.4 415 140 C 413 138.6 409 135 407 133 C 405 131 406.4 132 405 130 C 403.6 128 402.6 126 400 123 C 397.4 120 394.6 118 392 115 C 389.4 112 388.4 110 387 108 C 385.6 106 386.4 107 385 105 C 383.6 103 381.6 100 380 98 C 378.4 96 378.6 96 377 95 C 375.4 94 374 94 372 93 C 370 92 369.4 91 367 90 C 364.6 89 363 89 360 88 C 357 87 357 87 352 85 C 347 83 339.4 80 335 78 C 330.6 76 331.6 75.6 330 75 C 328.4 74.4 328.6 75.4 327 75 C 325.4 74.6 323.4 73.4 322 73 C 320.6 72.6 321 73.6 320 73 C 319 72.4 318.6 71 317 70 C 315.4 69 313.4 68.4 312 68 C 310.6 67.6 312.4 68.6 310 68 C 307.6 67.4 302.6 65.6 300 65 C 297.4 64.4 298 65 297 65 C 296 65 296 65.4 295 65 C 294 64.6 293.6 63.4 292 63 C 290.4 62.6 288.4 63 287 63 C 285.6 63 287 63 285 63 C 283 63 279.6 63 277 63 C 274.4 63 273.4 63 272 63 C 270.6 63 271.4 63 270 63 C 268.6 63 267 63 265 63 C 263 63 261.6 63 260 63 C 258.4 63 258 63 257 63 C 256 63 256 63 255 63 C 254 63 254 63 252 63 C 250 63 247 62.6 245 63 C 243 63.4 243 64.6 242 65 C 241 65.4 241 65 240 65 C 239 65 237.6 65 237 65"></path></svg>