<svg width="512" height="512" version="1.1" xmlns="http://www.w3.org/2000/svg"><path stroke-width="15" stroke="rgba(0,0,0,1)" fill="none" stroke-linejoin="round" stroke-linecap="round" d="M 125 216 C 125 217.4 125 219 125 223 C 125 227 125 229 125 236 C 125 243 125 250.6 125 258 C 125 265.4 125 258.4 125 273 C 125 287.6 125.6 312.4 125 331 C 124.4 349.6 122.6 355.6 122 366 C 121.4 376.4 122.4 376 122 383 C 121.6 390 120.4 396 120 401 C 119.6 406 120 405.6 120 408 C 120 410.4 120 412 120 413"></path><path stroke-width="15" stroke="rgba(0,0,0,1)" fill="none" stroke-linejoin="round" stroke-linecap="round" d="M 122 413 C 122.4 413 123 412.4 124 413 C 125 413.6 126 415.4 127 416 C 128 416.6 128 416 129 416 C 130 416 129.4 416 132 416 C 134.6 416 139 416.4 142 416 C 145 415.6 141.6 414.4 147 414 C 152.4 413.6 160.6 414.6 169 414 C 177.4 413.4 182.4 411.6 189 411 C 195.6 410.4 194.4 411.4 202 411 C 209.6 410.6 214 409.4 227 409 C 240 408.6 256 409 267 409 C 278 409 273 409 282 409 C 291 409 300.6 409 312 409 C 323.4 409 329.6 409 339 409 C 348.4 409 353.4 409 359 409 C 364.6 409 363.4 409 367 409 C 370.6 409 374.6 409 377 409 C 379.4 409 378.6 409 379 409"></path><path stroke-width="15" stroke="rgba(0,0,0,1)" fill="none" stroke-linejoin="round" stroke-linecap="round" d="M 387 404 C 387 403.4 387 402.6 387 401 C 387 399.4 387 398 387 396 C 387 394 387 393 387 391 C 387 389 387 387.4 387 386 C 387 384.6 386.6 385.4 387 384 C 387.4 382.6 388.6 382.6 389 379 C 389.4 375.4 389 371 389 366 C 389 361 389 357.4 389 354 C 389 350.6 389 354.6 389 349 C 389 343.4 389 332.6 389 326 C 389 319.4 389 322 389 316 C 389 310 389 302.4 389 296 C 389 289.6 389 293 389 284 C 389 275 389 259 389 251 C 389 243 389 247.4 389 244 C 389 240.6 389 237.6 389 234 C 389 230.4 389 227.6 389 226"></path><path stroke-width="15" stroke="rgba(0,0,0,1)" fill="none" stroke-linejoin="round" stroke-linecap="round" d="M 390 203 C 390 204 390 202.4 390 208 C 390 213.6 390 225 390 231 C 390 237 390.6 231.6 390 238 C 389.4 244.4 387.6 258 387 263"></path><path stroke-width="15" stroke="rgba(0,0,0,1)" fill="none" stroke-linejoin="round" stroke-linecap="round" d="M 84 209 C 84.6 209 86 209 87 209 C 88 209 88 209 89 209 C 90 209 90.4 209 92 209 C 93.6 209 95.6 209 97 209 C 98.4 209 97 209 99 209 C 101 209 104 209.6 107 209 C 110 208.4 111.6 206.6 114 206 C 116.4 205.4 117.4 206 119 206 C 120.6 206 120.4 206 122 206 C 123.6 206 125 206 127 206 C 129 206 130.6 206 132 206 C 133.4 206 132.6 206 134 206 C 135.4 206 137 206.4 139 206 C 141 205.6 142.4 204.4 144 204 C 145.6 203.6 144.4 204 147 204 C 149.6 204 153.6 204 157 204 C 160.4 204 162 204.6 164 204 C 166 203.4 162.4 201.6 167 201 C 171.6 200.4 180 201 187 201 C 194 201 198 201 202 201 C 206 201 203 201 207 201 C 211 201 218 201 222 201 C 226 201 225.6 201 227 201 C 228.4 201 228 201 229 201 C 230 201 230.4 201 232 201 C 233.6 201 235 201 237 201 C 239 201 240 201 242 201 C 244 201 242.6 201 247 201 C 251.4 201 259 201 264 201 C 269 201 270 201 272 201 C 274 201 272.6 201 274 201 C 275.4 201 277.4 201 279 201 C 280.6 201 280 201 282 201 C 284 201 286.6 201 289 201 C 291.4 201 290.4 201 294 201 C 297.6 201 303.4 201 307 201 C 310.6 201 310.6 201 312 201 C 313.4 201 313 201 314 201 C 315 201 316 201 317 201 C 318 201 317.6 201 319 201 C 320.4 201 321 201 324 201 C 327 201 331.4 201 334 201 C 336.6 201 336 201 337 201 C 338 201 336.6 201 339 201 C 341.4 201 345.4 201 349 201 C 352.6 201 355 201 357 201 C 359 201 357 201 359 201 C 361 201 364 201 367 201 C 370 201 372 201 374 201 C 376 201 376 201 377 201 C 378 201 378 201.4 379 201 C 380 200.6 381 199.4 382 199 C 383 198.6 382 199 384 199 C 386 199 390 199 392 199 C 394 199 393 199 394 199 C 395 199 396 199 397 199 C 398 199 397.6 199 399 199 C 400.4 199 402 199 404 199 C 406 199 407.4 199 409 199 C 410.6 199 411 199 412 199 C 413 199 413 199 414 199 C 415 199 416 199 417 199 C 418 199 417.6 199.6 419 199 C 420.4 198.4 422.4 196.6 424 196 C 425.6 195.4 426 196 427 196 C 428 196 428.6 196 429 196"></path><path stroke-width="15" stroke="rgba(0,0,0,1)" fill="none" stroke-linejoin="round" stroke-linecap="round" d=""></path><path stroke-width="15" stroke="rgba(0,0,0,1)" fill="none" stroke-linejoin="round" stroke-linecap="round" d="M 79 204 C 79 203.4 79 202 79 201 C 79 200 79 200 79 199 C 79 198 79 197 79 196 C 79 195 79 195 79 194 C 79 193 79 192 79 191 C 79 190 79 190.4 79 189 C 79 187.6 79 185.6 79 184 C 79 182.4 79 182 79 181 C 79 180 79 180 79 179 C 79 178 79 177 79 176 C 79 175 79 175 79 174 C 79 173 79 172 79 171 C 79 170 79 169.4 79 169"></path><path stroke-width="15" stroke="rgba(0,0,0,1)" fill="none" stroke-linejoin="round" stroke-linecap="round" d=""></path><path stroke-width="15" stroke="rgba(0,0,0,1)" fill="none" stroke-linejoin="round" stroke-linecap="round" d="M 430 191 C 430 190.6 430 190.4 430 189 C 430 187.6 430 186 430 184 C 430 182 430 180.6 430 179 C 430 177.4 430.6 177.6 430 176 C 429.4 174.4 427.6 173.4 427 171 C 426.4 168.6 427 166 427 164 C 427 162 427 162 427 161 C 427 160 427 160 427 159 C 427 158 427 157 427 156 C 427 155 427 155 427 154 C 427 153 427 151.6 427 151"></path><path stroke-width="15" stroke="rgba(0,0,0,1)" fill="none" stroke-linejoin="round" stroke-linecap="round" d="M 82 161 C 82.4 161 83 161 84 161 C 85 161 86 161 87 161 C 88 161 88 161.4 89 161 C 90 160.6 91 159.4 92 159 C 93 158.6 92.6 159 94 159 C 95.4 159 97.4 159 99 159 C 100.6 159 101 159 102 159 C 103 159 103 159 104 159 C 105 159 106 159.6 107 159 C 108 158.4 107.6 156.6 109 156 C 110.4 155.4 112.4 156 114 156 C 115.6 156 116 156 117 156 C 118 156 118 156.4 119 156 C 120 155.6 121 154.4 122 154 C 123 153.6 122.6 154 124 154 C 125.4 154 127.4 154 129 154 C 130.6 154 130 154.6 132 154 C 134 153.4 136.6 151.6 139 151 C 141.4 150.4 142.4 151 144 151 C 145.6 151 145 151 147 151 C 149 151 151.6 151 154 151 C 156.4 151 157.4 151 159 151 C 160.6 151 160 151 162 151 C 164 151 167 151 169 151 C 171 151 171 151 172 151 C 173 151 172.6 151 174 151 C 175.4 151 177.4 151 179 151 C 180.6 151 180.4 151 182 151 C 183.6 151 185.6 151 187 151 C 188.4 151 187.6 151 189 151 C 190.4 151 192 151 194 151 C 196 151 197.4 151 199 151 C 200.6 151 200.4 151 202 151 C 203.6 151 205 151 207 151 C 209 151 210.6 151 212 151 C 213.4 151 212 151 214 151 C 216 151 220 151 222 151 C 224 151 223 151 224 151 C 225 151 225 151.4 227 151 C 229 150.6 231.6 149.4 234 149 C 236.4 148.6 237.4 149 239 149 C 240.6 149 241 149 242 149 C 243 149 243 149 244 149 C 245 149 246 149 247 149 C 248 149 247 149 249 149 C 251 149 254.4 149 257 149 C 259.6 149 260.6 149 262 149 C 263.4 149 260 149.6 264 149 C 268 148.4 276.4 146.6 282 146 C 287.6 145.4 289 146 292 146 C 295 146 294 146 297 146 C 300 146 304 146 307 146 C 310 146 310.6 146 312 146 C 313.4 146 313 146 314 146 C 315 146 316 146 317 146 C 318 146 318 146.4 319 146 C 320 145.6 321 144.4 322 144 C 323 143.6 323 144 324 144 C 325 144 326 144 327 144 C 328 144 327.6 144 329 144 C 330.4 144 332.4 144 334 144 C 335.6 144 336 144 337 144 C 338 144 337.6 144 339 144 C 340.4 144 342 144 344 144 C 346 144 347 144 349 144 C 351 144 352 144 354 144 C 356 144 357 144 359 144 C 361 144 362.4 144 364 144 C 365.6 144 365 144 367 144 C 369 144 371.6 144 374 144 C 376.4 144 377 144 379 144 C 381 144 382 144 384 144 C 386 144 387 144 389 144 C 391 144 392.4 144 394 144 C 395.6 144 396 144 397 144 C 398 144 397 144 399 144 C 401 144 404.4 144 407 144 C 409.6 144 410.6 144 412 144 C 413.4 144 413 144 414 144 C 415 144 416 144 417 144 C 418 144 418 144 419 144 C 420 144 421 144 422 144 C 423 144 423.6 144 424 144"></path><path stroke-width="15" stroke="rgba(0,0,0,1)" fill="none" stroke-linejoin="round" stroke-linecap="round" d="M 200 146 C 200 145.6 199.6 145 200 144 C 200.4 143 201.6 142 202 141 C 202.4 140 202 141.4 202 139 C 202 136.6 201.6 133.6 202 129 C 202.4 124.4 203 119.6 204 116 C 205 112.4 206 114.4 207 111 C 208 107.6 208.6 102 209 99 C 209.4 96 208.4 96.6 209 96 C 209.6 95.4 210 96 212 96 C 214 96 215.6 96 219 96 C 222.4 96 225.4 96 229 96 C 232.6 96 233.4 96 237 96 C 240.6 96 243.6 96 247 96 C 250.4 96 251 96 254 96 C 257 96 259 96 262 96 C 265 96 266.6 96 269 96 C 271.4 96 271.4 96 274 96 C 276.6 96 279.4 96 282 96 C 284.6 96 285.6 96 287 96 C 288.4 96 288 96 289 96 C 290 96 290 96.4 292 96 C 294 95.6 296.6 94.4 299 94 C 301.4 93.6 302.4 94 304 94 C 305.6 94 306 94 307 94 C 308 94 307.6 94 309 94 C 310.4 94 312.4 94 314 94 C 315.6 94 316.4 93.6 317 94 C 317.6 94.4 317 94.2 317 96 C 317 97.8 317 100.6 317 103 C 317 105.4 317.4 104.4 317 108 C 316.6 111.6 316 117.4 315 121 C 314 124.6 312.6 124.6 312 126 C 311.4 127.4 312 127 312 128 C 312 129 312 130 312 131 C 312 132 312 132 312 133 C 312 134 312 135 312 136 C 312 137 312 137 312 138 C 312 139 312 140 312 141 C 312 142 312 142.6 312 143"></path><path stroke-width="15" stroke="rgba(0,0,0,1)" fill="none" stroke-linejoin="round" stroke-linecap="round" d="M 192 241 C 192 241.4 191.6 241 192 243 C 192.4 245 193.6 248.4 194 251 C 194.4 253.6 194 252.6 194 256 C 194 259.4 194 264 194 268 C 194 272 194 273.4 194 276 C 194 278.6 194 278 194 281 C 194 284 194 286.6 194 291 C 194 295.4 194.4 299 194 303 C 193.6 307 192.4 309 192 311 C 191.6 313 192 310 192 313 C 192 316 192 321.4 192 326 C 192 330.6 192 332.6 192 336 C 192 339.4 192 340.6 192 343 C 192 345.4 192 346 192 348 C 192 350 192 351.4 192 353 C 192 354.6 192 355 192 356 C 192 357 192 356 192 358 C 192 360 192 364.4 192 366"></path><path stroke-width="15" stroke="rgba(0,0,0,1)" fill="none" stroke-linejoin="round" stroke-linecap="round" d="M 265 238 C 265 238.6 265 238 265 241 C 265 244 265 249 265 253 C 265 257 265 257.4 265 261 C 265 264.6 265 268.6 265 271 C 265 273.4 265 270 265 273 C 265 276 265.6 282.4 265 286 C 264.4 289.6 262.6 288.6 262 291 C 261.4 293.4 262 295.6 262 298 C 262 300.4 262 301.4 262 303 C 262 304.6 262 305 262 306 C 262 307 262 305.6 262 308 C 262 310.4 262 312 262 318 C 262 324 261.6 330.4 262 338 C 262.4 345.6 263.6 351.4 264 356 C 264.4 360.6 263.4 358 264 361 C 264.6 364 266.4 369.4 267 371 C 267.6 372.6 267 369.4 267 369"></path><path stroke-width="15" stroke="rgba(0,0,0,1)" fill="none" stroke-linejoin="round" stroke-linecap="round" d="M 332 251 C 332 252 331.6 253.6 332 256 C 332.4 258.4 333.6 259.6 334 263 C 334.4 266.4 334 270 334 273 C 334 276 333.4 275 334 278 C 334.6 281 336.4 285 337 288 C 337.6 291 337 291 337 293 C 337 295 337 296 337 298 C 337 300 337 301 337 303 C 337 305 337 306 337 308 C 337 310 337 311.4 337 313 C 337 314.6 337 314 337 316 C 337 318 337 319.6 337 323 C 337 326.4 337 330.4 337 333 C 337 335.6 337 334.4 337 336 C 337 337.6 337 338 337 341 C 337 344 337 348.6 337 351 C 337 353.4 337 352.6 337 353"></path></svg>