<svg width="512" height="512" version="1.1" xmlns="http://www.w3.org/2000/svg"><path stroke-width="15" stroke="rgba(0,0,0,1)" fill="none" stroke-linejoin="round" stroke-linecap="round" d="M 52 87 C 52 87.4 52.4 87 52 89 C 51.6 91 50.4 95 50 97 C 49.6 99 50 96.6 50 99 C 50 101.4 50 105 50 109 C 50 113 50.6 115 50 119 C 49.4 123 47.6 123.4 47 129 C 46.4 134.6 47 140.4 47 147 C 47 153.6 47 157.6 47 162 C 47 166.4 47.4 162.6 47 169 C 46.6 175.4 45.4 186 45 194 C 44.6 202 45 202 45 209 C 45 216 45 223.4 45 229 C 45 234.6 45 230.4 45 237 C 45 243.6 45.6 254 45 262 C 44.4 270 42.6 272.6 42 277 C 41.4 281.4 42.4 279.6 42 284 C 41.6 288.4 40.4 294.4 40 299 C 39.6 303.6 40 304.4 40 307 C 40 309.6 40 308.6 40 312 C 40 315.4 40 319.6 40 324 C 40 328.4 40 330.4 40 334 C 40 337.6 40 339.4 40 342 C 40 344.6 40 345 40 347 C 40 349 40 350 40 352 C 40 354 40 355.6 40 357 C 40 358.4 39.6 357 40 359 C 40.4 361 41.6 364 42 367 C 42.4 370 42 371.6 42 374 C 42 376.4 41.6 374 42 379 C 42.4 384 43.6 394 44 399 C 44.4 404 44 402.4 44 404 C 44 405.6 44 406 44 407 C 44 408 43 408 44 409 C 45 410 46 411.4 49 412 C 52 412.6 53 412 59 412 C 65 412 72 412 79 412 C 86 412 78.4 412.4 94 412 C 109.6 411.6 135.4 410.4 157 410 C 178.6 409.6 188.6 410 202 410 C 215.4 410 212.6 410.6 224 410 C 235.4 409.4 243 408 259 407 C 275 406 290.4 406 304 405 C 317.6 404 320.4 402.6 327 402 C 333.6 401.4 332 402 337 402 C 342 402 348 402 352 402 C 356 402 355.6 402 357 402 C 358.4 402 353.6 402 359 402 C 364.4 402 376.4 402 384 402 C 391.6 402 393.4 402 397 402 C 400.6 402 400 402 402 402 C 404 402 406 402.4 407 402 C 408 401.6 407 401 407 400 C 407 399 405.6 401.6 407 397 C 408.4 392.4 411.6 386.4 414 377 C 416.4 367.6 417 362 419 350 C 421 338 422.4 327.6 424 317 C 425.6 306.4 426 314.4 427 297 C 428 279.6 428.6 251.4 429 230 C 429.4 208.6 429.4 201.6 429 190 C 428.6 178.4 427.4 183 427 172 C 426.6 161 427 145.4 427 135 C 427 124.6 427 124 427 120 C 427 116 427 118 427 115 C 427 112 427 108.6 427 105 C 427 101.4 427.4 99 427 97 C 426.6 95 425.4 96 425 95 C 424.6 94 425 94.6 425 92 C 425 89.4 425 85 425 82 C 425 79 425.6 78 425 77 C 424.4 76 423.6 77 422 77 C 420.4 77 419.4 77 417 77 C 414.6 77 412.4 77 410 77 C 407.6 77 410.6 77 405 77 C 399.4 77 390.6 77 382 77 C 373.4 77 369 77 362 77 C 355 77 358.4 77 347 77 C 335.6 77 317.4 77 305 77 C 292.6 77 292 77.4 285 77 C 278 76.6 274.6 75.4 270 75 C 265.4 74.6 266.6 75 262 75 C 257.4 75 254 75 247 75 C 240 75 233 75 227 75 C 221 75 225 74.6 217 75 C 209 75.4 197 76.6 187 77 C 177 77.4 172.4 77 167 77 C 161.6 77 163.4 76.6 160 77 C 156.6 77.4 156 78.6 150 79 C 144 79.4 135.6 79 130 79 C 124.4 79 125 78.4 122 79 C 119 79.6 119 81.4 115 82 C 111 82.6 107 82 102 82 C 97 82 93.4 81.6 90 82 C 86.6 82.4 86.6 83.6 85 84 C 83.4 84.4 83.6 84 82 84 C 80.4 84 78.4 84 77 84 C 75.6 84 76 84 75 84 C 74 84 73 84 72 84 C 71 84 71 84 70 84 C 69 84 68.6 84 67 84 C 65.4 84 63.4 84 62 84 C 60.6 84 62 84 60 84 C 58 84 53.6 84 52 84"></path></svg>